# Blender 3.4.1
# www.blender.org
mtllib post2.mtl
o Cube.001
v 0.339246 0.002092 0.339246
v -0.339246 0.002092 0.339246
v 0.339246 0.002093 -0.339246
v -0.339246 0.002093 -0.339246
v 0.147990 0.680585 0.147990
v -0.147990 0.680585 0.147990
v 0.147990 0.680585 -0.147990
v -0.147990 0.680585 -0.147990
v -0.221329 2.441199 -0.221328
v 0.221329 2.441199 -0.221328
v 0.221329 2.441199 0.221330
v -0.221329 2.441199 0.221330
v -0.131762 2.834493 -0.131761
v 0.131762 2.834493 -0.131761
v 0.131762 2.834493 0.131763
v -0.131762 2.834493 0.131763
v -0.131762 3.119525 -0.131761
v 0.131762 3.119525 -0.131761
v 0.131762 3.119525 0.131763
v -0.131762 3.119525 0.131763
v -0.131762 3.119525 -0.131761
v 0.131762 3.119525 -0.131761
v 0.131762 3.119525 0.131763
v -0.131762 3.119525 0.131763
v -0.186370 3.299123 -0.186370
v 0.186371 3.299123 -0.186370
v 0.186371 3.299123 0.186372
v -0.186370 3.299123 0.186372
v -0.186370 3.299123 -0.186370
v 0.186371 3.299123 -0.186370
v 0.186371 3.299123 0.186372
v -0.186370 3.299123 0.186372
v -0.131762 3.119525 -0.131761
v 0.131762 3.119525 -0.131761
v -0.186370 3.299123 -0.186370
v 0.186371 3.299123 -0.186370
v -0.186370 3.420993 -0.186370
v 0.186371 3.420993 -0.186370
v 0.186371 3.420993 0.186372
v -0.186370 3.420993 0.186372
v -0.186370 3.420993 -0.186370
v 0.186371 3.420993 -0.186370
v 0.186371 3.420993 0.186372
v -0.186370 3.420993 0.186372
v -0.131898 3.552644 -0.131897
v 0.131898 3.552644 -0.131897
v 0.131898 3.552644 0.131899
v -0.131898 3.552644 0.131899
v -0.077220 3.334811 -0.430569
v 0.077220 3.334811 -0.430569
v -0.077220 3.385305 -0.430569
v 0.077220 3.385305 -0.430569
v -0.041499 3.346489 -0.592718
v 0.041500 3.346489 -0.592718
v -0.041499 3.373627 -0.592718
v 0.041500 3.373627 -0.592718
v -0.022775 3.352612 -0.641729
v 0.022775 3.352612 -0.641729
v -0.022775 3.367505 -0.641729
v 0.022775 3.367505 -0.641729
v -0.034607 3.777139 -0.034606
v 0.034607 3.777139 -0.034606
v 0.034607 3.777139 0.034608
v -0.034607 3.777139 0.034608
v -0.022775 3.352612 -0.817224
v 0.022775 3.352612 -0.817224
v -0.022775 3.367505 -0.817224
v 0.022775 3.367505 -0.817224
v -0.081707 3.333345 -0.883013
v 0.081707 3.333345 -0.883013
v -0.081707 3.386773 -0.883013
v 0.081707 3.386773 -0.883013
v -0.184080 3.299873 -0.986231
v 0.184080 3.299873 -0.986231
v -0.184080 3.420244 -0.986231
v 0.184080 3.420244 -0.986231
v -0.092018 3.329973 -1.209606
v 0.092019 3.329973 -1.209606
v -0.092018 3.390144 -1.209606
v 0.092019 3.390144 -1.209606
v -0.053618 3.342528 -1.330301
v 0.053619 3.342528 -1.330301
v -0.053618 3.377589 -1.330301
v 0.053619 3.377589 -1.330301
vn -0.0000 -1.0000 -0.0000
vn -0.0000 0.2713 -0.9625
vn -0.0000 -0.0416 0.9991
vn -0.0000 0.2713 0.9625
vn 0.9625 0.2713 -0.0000
vn -0.9625 0.2713 -0.0000
vn 0.9750 0.2221 -0.0000
vn 0.9991 -0.0416 -0.0000
vn -0.9991 -0.0416 -0.0000
vn -0.0000 -0.0416 -0.9991
vn -1.0000 -0.0000 -0.0000
vn -0.9750 0.2221 -0.0000
vn -0.0000 0.2221 -0.9750
vn -0.0000 0.2221 0.9750
vn -0.0000 -0.0000 -1.0000
vn -0.0000 -0.0000 1.0000
vn 1.0000 -0.0000 -0.0000
vn -0.9568 -0.2909 -0.0000
vn -0.0000 -0.0000 -0.0000
vn -1.0000 -0.0001 -0.0000
vn -0.0000 -0.2909 0.9567
vn 0.9567 -0.2909 -0.0000
vn -0.0000 -0.2909 -0.9567
vn -1.0000 -0.0000 -0.0001
vn -0.0000 0.9895 -0.1446
vn -0.0000 0.3823 0.9240
vn -0.9175 0.3976 -0.0000
vn 0.9240 0.3823 -0.0000
vn -0.9240 0.3823 -0.0000
vn -0.0000 0.3823 -0.9240
vn -0.9766 -0.0000 -0.2151
vn -0.9130 -0.0000 -0.4081
vn -0.0000 -0.9895 -0.1446
vn 0.9130 -0.0000 -0.4081
vn -0.0000 0.9923 -0.1239
vn -0.0000 0.9974 -0.0718
vn 0.9766 -0.0000 -0.2151
vn -0.0000 -0.9974 -0.0718
vn 0.9341 -0.0000 -0.3569
vn -0.0000 -0.9923 -0.1240
vn -0.9342 -0.0000 -0.3569
vn -0.0000 1.0000 -0.0000
vn -0.0000 0.3976 -0.9175
vn -0.0000 0.3976 0.9175
vn 0.9175 0.3976 -0.0000
vn 0.7449 -0.0000 0.6672
vn 0.7100 -0.0000 0.7042
vn -0.0000 -0.9597 0.2810
vn -0.7448 -0.0000 0.6672
vn -0.0000 0.9597 0.2811
vn -0.9246 -0.0000 -0.3810
vn -0.0000 -0.9512 0.3085
vn -0.7100 -0.0000 0.7042
vn -0.0000 0.9512 0.3085
vn -0.0000 0.9946 -0.1035
vn -0.0000 0.9910 -0.1335
vn 0.9246 -0.0000 -0.3810
vn -0.0000 -0.9910 -0.1335
vn 0.9529 -0.0000 -0.3032
vn -0.0000 -0.9946 -0.1035
vn -0.9529 -0.0000 -0.3032
vn -1.0000 0.0001 -0.0000
vn -0.0000 0.9923 -0.1240
vn -0.0000 -0.9923 -0.1239
vn -0.9341 -0.0000 -0.3569
vn -0.7449 -0.0000 0.6672
vt 0.375000 0.000000
vt 0.375000 1.000000
vt 0.125000 0.750000
vt 0.625000 0.000000
vt 0.625000 1.000000
vt 0.875000 0.750000
vt 0.125000 0.500000
vt 0.375000 0.250000
vt 0.625000 0.250000
vt 0.875000 0.500000
vt 0.375000 0.750000
vt 0.625000 0.750000
vt 0.375000 0.500000
vt 0.625000 0.500000
vt 0.625000 0.500000
vt 0.375000 0.500000
vt 0.375000 0.750000
vt 0.625000 0.750000
vt 0.625000 0.500000
vt 0.375000 0.500000
vt 0.375000 0.750000
vt 0.625000 0.750000
vt 0.625000 0.500000
vt 0.375000 0.500000
vt 0.375000 0.750000
vt 0.625000 0.750000
vt 0.625000 0.500000
vt 0.375000 0.500000
vt 0.375000 0.750000
vt 0.625000 0.750000
vt 0.625000 0.500000
vt 0.375000 0.500000
vt 0.375000 0.750000
vt 0.625000 0.750000
vt 0.625000 0.500000
vt 0.375000 0.500000
vt 0.375000 0.750000
vt 0.625000 0.750000
vt 0.625000 0.500000
vt 0.375000 0.500000
vt 0.625000 0.500000
vt 0.375000 0.500000
vt 0.625000 0.500000
vt 0.375000 0.500000
vt 0.375000 0.750000
vt 0.625000 0.750000
vt 0.625000 0.500000
vt 0.375000 0.500000
vt 0.375000 0.750000
vt 0.625000 0.750000
vt 0.625000 0.500000
vt 0.375000 0.500000
vt 0.375000 0.750000
vt 0.625000 0.750000
vt 0.625000 0.500000
vt 0.375000 0.500000
vt 0.625000 0.500000
vt 0.375000 0.500000
vt 0.625000 0.500000
vt 0.375000 0.500000
vt 0.625000 0.500000
vt 0.375000 0.500000
vt 0.625000 0.500000
vt 0.375000 0.500000
vt 0.625000 0.500000
vt 0.375000 0.500000
vt 0.625000 0.500000
vt 0.375000 0.500000
vt 0.375000 0.750000
vt 0.625000 0.750000
vt 0.625000 0.500000
vt 0.375000 0.500000
vt 0.625000 0.500000
vt 0.375000 0.500000
vt 0.625000 0.500000
vt 0.375000 0.500000
vt 0.625000 0.500000
vt 0.375000 0.500000
vt 0.625000 0.500000
vt 0.375000 0.500000
vt 0.625000 0.500000
vt 0.375000 0.500000
vt 0.625000 0.500000
vt 0.375000 0.500000
vt 0.625000 0.500000
vt 0.375000 0.500000
vt 0.625000 0.500000
vt 0.375000 0.500000
vt 0.625000 0.500000
vt 0.375000 0.500000
s 0
f 2/4/1 3/8/1 1/1/1
f 4/9/2 7/13/2 3/8/2
f 5/11/3 12/18/3 6/12/3
f 6/12/4 1/2/4 5/11/4
f 7/13/5 1/3/5 3/7/5
f 4/10/6 6/12/6 8/14/6
f 10/16/7 15/21/7 11/17/7
f 7/13/8 11/17/8 5/11/8
f 6/12/9 9/15/9 8/14/9
f 8/14/10 10/16/10 7/13/10
f 16/22/11 17/23/11 13/19/11
f 12/18/12 13/19/12 9/15/12
f 9/15/13 14/20/13 10/16/13
f 11/17/14 16/22/14 12/18/14
f 20/26/11 23/29/11 24/30/15
f 13/19/15 18/24/15 14/20/15
f 15/21/16 20/26/16 16/22/16
f 14/20/17 19/25/17 15/21/17
f 24/30/18 25/31/18 21/27/18
f 19/25/19 22/28/19 23/29/19
f 17/23/19 24/30/19 21/27/19
f 18/24/11 21/27/20 22/28/15
f 25/31/19 32/38/19 29/35/19
f 25/31/11 36/42/11 35/41/15
f 23/29/21 28/34/21 24/30/21
f 22/28/22 27/33/22 23/29/22
f 31/37/16 40/46/16 32/38/16
f 26/32/11 29/35/20 30/36/15
f 28/34/11 31/37/11 32/38/15
f 27/33/19 30/36/19 31/37/19
f 33/39/23 36/42/23 34/40/23
f 21/27/11 35/41/11 33/39/16
f 22/28/11 33/39/20 34/40/15
f 26/32/24 34/40/11 36/42/15
f 38/44/11 41/47/20 42/48/15
f 30/36/17 39/45/17 31/37/17
f 32/38/11 37/43/11 29/35/11
f 38/44/25 51/57/25 37/43/25
f 43/49/26 48/54/26 44/50/26
f 40/46/11 43/49/11 44/50/15
f 39/45/19 42/48/19 43/49/19
f 37/43/19 44/50/19 41/47/19
f 48/54/27 61/67/27 45/51/27
f 42/48/28 47/53/28 43/49/28
f 44/50/29 45/51/29 41/47/29
f 41/47/30 46/52/30 42/48/30
f 51/57/31 53/59/31 49/55/31
f 37/43/32 49/55/32 29/35/32
f 29/35/33 50/56/33 30/36/33
f 38/44/34 50/56/34 52/58/34
f 56/62/35 59/65/35 55/61/35
f 52/58/36 55/61/36 51/57/36
f 50/56/37 56/62/37 52/58/37
f 49/55/38 54/60/38 50/56/38
f 58/64/17 68/74/17 60/66/17
f 56/62/39 58/64/39 60/66/39
f 53/59/40 58/64/40 54/60/40
f 55/61/41 57/63/41 53/59/41
f 61/67/42 63/69/42 62/68/42
f 45/51/43 62/68/43 46/52/43
f 47/53/44 64/70/44 48/54/44
f 46/52/45 63/69/45 47/53/45
f 66/72/46 72/78/46 68/74/46
f 57/63/1 66/72/1 58/64/1
f 59/65/11 65/71/11 57/63/11
f 60/66/42 67/73/42 59/65/42
f 70/76/47 76/82/47 72/78/47
f 66/72/48 69/75/48 70/76/48
f 67/73/49 69/75/49 65/71/49
f 67/73/50 72/78/50 71/77/50
f 75/81/51 77/83/51 73/79/51
f 69/75/52 74/80/52 70/76/52
f 71/77/53 73/79/53 69/75/53
f 72/78/54 75/81/54 71/77/54
f 80/86/55 83/89/55 79/85/55
f 76/82/56 79/85/56 75/81/56
f 74/80/57 80/86/57 76/82/57
f 73/79/58 78/84/58 74/80/58
f 81/87/15 84/90/15 82/88/15
f 78/84/59 84/90/59 80/86/59
f 78/84/60 81/87/60 82/88/60
f 79/85/61 81/87/61 77/83/61
f 2/4/1 4/9/1 3/8/1
f 4/9/2 8/14/2 7/13/2
f 5/11/3 11/17/3 12/18/3
f 6/12/4 2/5/4 1/2/4
f 7/13/5 5/11/5 1/3/5
f 4/10/6 2/6/6 6/12/6
f 10/16/7 14/20/7 15/21/7
f 7/13/8 10/16/8 11/17/8
f 6/12/9 12/18/9 9/15/9
f 8/14/10 9/15/10 10/16/10
f 16/22/11 20/26/11 17/23/11
f 12/18/12 16/22/12 13/19/12
f 9/15/13 13/19/13 14/20/13
f 11/17/14 15/21/14 16/22/14
f 20/26/20 19/25/15 23/29/11
f 13/19/15 17/23/15 18/24/15
f 15/21/16 19/25/16 20/26/16
f 14/20/17 18/24/17 19/25/17
f 24/30/18 28/34/18 25/31/18
f 19/25/19 18/24/19 22/28/19
f 17/23/19 20/26/19 24/30/19
f 18/24/11 17/23/15 21/27/11
f 25/31/19 28/34/19 32/38/19
f 25/31/20 26/32/15 36/42/11
f 23/29/21 27/33/21 28/34/21
f 22/28/22 26/32/22 27/33/22
f 31/37/16 39/45/16 40/46/16
f 26/32/11 25/31/15 29/35/11
f 28/34/20 27/33/15 31/37/11
f 27/33/19 26/32/19 30/36/19
f 33/39/23 35/41/23 36/42/23
f 21/27/62 25/31/15 35/41/24
f 22/28/11 21/27/15 33/39/11
f 26/32/20 22/28/16 34/40/62
f 38/44/11 37/43/15 41/47/11
f 30/36/17 38/44/17 39/45/17
f 32/38/11 40/46/11 37/43/11
f 38/44/25 52/58/25 51/57/25
f 43/49/26 47/53/26 48/54/26
f 40/46/20 39/45/15 43/49/11
f 39/45/19 38/44/19 42/48/19
f 37/43/19 40/46/19 44/50/19
f 48/54/27 64/70/27 61/67/27
f 42/48/28 46/52/28 47/53/28
f 44/50/29 48/54/29 45/51/29
f 41/47/30 45/51/30 46/52/30
f 51/57/31 55/61/31 53/59/31
f 37/43/32 51/57/32 49/55/32
f 29/35/33 49/55/33 50/56/33
f 38/44/34 30/36/34 50/56/34
f 56/62/63 60/66/63 59/65/63
f 52/58/36 56/62/36 55/61/36
f 50/56/37 54/60/37 56/62/37
f 49/55/38 53/59/38 54/60/38
f 58/64/17 66/72/17 68/74/17
f 56/62/39 54/60/39 58/64/39
f 53/59/64 57/63/64 58/64/64
f 55/61/65 59/65/65 57/63/65
f 61/67/42 64/70/42 63/69/42
f 45/51/43 61/67/43 62/68/43
f 47/53/44 63/69/44 64/70/44
f 46/52/45 62/68/45 63/69/45
f 66/72/46 70/76/46 72/78/46
f 57/63/1 65/71/1 66/72/1
f 59/65/11 67/73/11 65/71/11
f 60/66/42 68/74/42 67/73/42
f 70/76/47 74/80/47 76/82/47
f 66/72/48 65/71/48 69/75/48
f 67/73/66 71/77/66 69/75/66
f 67/73/50 68/74/50 72/78/50
f 75/81/51 79/85/51 77/83/51
f 69/75/52 73/79/52 74/80/52
f 71/77/53 75/81/53 73/79/53
f 72/78/54 76/82/54 75/81/54
f 80/86/55 84/90/55 83/89/55
f 76/82/56 80/86/56 79/85/56
f 74/80/57 78/84/57 80/86/57
f 73/79/58 77/83/58 78/84/58
f 81/87/15 83/89/15 84/90/15
f 78/84/59 82/88/59 84/90/59
f 78/84/60 77/83/60 81/87/60
f 79/85/61 83/89/61 81/87/61
